<svg width="67" height="60" viewBox="0 0 67 60" fill="none" xmlns="http://www.w3.org/2000/svg">
<path fill-rule="evenodd" clip-rule="evenodd" d="M35.1915 0.702704C35.6404 1.15281 35.8925 1.76336 35.8925 2.4C35.8925 1.76337 36.1447 1.15283 36.5936 0.70272C37.0425 0.252615 37.6513 -0.000167703 38.286 9.58693e-08L59.8211 0.00569181C59.8209 0.00569181 59.8213 0.00569181 59.8211 0.00569181C59.9741 0.00568824 60.1371 0.00436931 60.301 0.00303779C60.7089 -0.000275564 61.1263 -0.00366731 61.434 0.0129371L61.4451 0.0135379C61.807 0.0329755 62.8706 0.0901156 63.6967 0.918865C64.5228 1.7475 64.5797 2.81416 64.599 3.17701L64.5996 3.18825C64.6161 3.49667 64.6128 3.91525 64.6095 4.3242C64.6081 4.48893 64.6068 4.6521 64.6068 4.80587L64.6068 52.8C64.6068 52.9538 64.6082 53.1169 64.6095 53.2817C64.6128 53.6906 64.6162 54.1092 64.5997 54.4176L64.599 54.4288C64.5797 54.7917 64.5228 55.8584 63.6966 56.687C62.8705 57.5157 61.8069 57.5728 61.4451 57.5922L61.4339 57.5928C61.1264 57.6094 60.7091 57.606 60.3014 57.6027C60.1371 57.6013 59.9744 57.6 59.8211 57.6H11.964C11.8107 57.6 11.648 57.6013 11.4837 57.6027C11.076 57.606 10.6587 57.6094 10.3512 57.5928L10.34 57.5922C9.97821 57.5728 8.91465 57.5157 8.08849 56.687C7.26233 55.8584 7.20541 54.7917 7.18605 54.4288L7.18545 54.4176C7.16892 54.1092 7.17231 53.6906 7.17561 53.2816C7.17694 53.1169 7.17826 52.9538 7.17826 52.8L7.17823 38.4057C7.17823 37.0802 8.24954 36.0057 9.57108 36.0057C10.8926 36.0057 11.9639 37.0802 11.9639 38.4057L11.964 52.8L59.8211 52.8L59.8211 4.80587C59.8211 4.80581 59.8211 4.80593 59.8211 4.80587L40.6783 4.80063V12H31.1068V4.80068L11.9647 4.8061C11.9646 4.8061 11.9647 4.8061 11.9647 4.8061L11.9639 19.2057C11.9639 20.5312 10.8926 21.6057 9.57109 21.6057C8.24955 21.6057 7.17823 20.5312 7.17823 19.2057V4.79961C7.17823 4.64593 7.17691 4.48287 7.17558 4.31825C7.17227 3.90939 7.16889 3.49092 7.18544 3.18278C7.18564 3.17897 7.18585 3.17507 7.18606 3.17108C7.20541 2.80896 7.26257 1.73914 8.09361 0.910666C8.92038 0.0864384 9.98266 0.031393 10.3422 0.0127603C10.3467 0.0125281 10.3511 0.0123015 10.3553 0.0120792C10.6574 -0.00367703 11.0695 -0.000172853 11.4727 0.00325565C11.6406 0.00468402 11.807 0.00609922 11.9633 0.00610323L33.499 9.58693e-08C34.1338 -0.000179719 34.7426 0.252597 35.1915 0.702704Z" fill="#003B78"/>
<path fill-rule="evenodd" clip-rule="evenodd" d="M45.4641 21.6C46.7857 21.6 47.857 22.6745 47.857 24V38.4C47.857 39.7255 46.7857 40.8 45.4641 40.8C44.1426 40.8 43.0713 39.7255 43.0713 38.4V24C43.0713 22.6745 44.1426 21.6 45.4641 21.6Z" fill="#003B78"/>
<path fill-rule="evenodd" clip-rule="evenodd" d="M45.4647 21.6C46.1196 21.6 46.7458 21.8692 47.1975 22.3448L51.9832 27.3848C52.8946 28.3447 52.8576 29.8638 51.9007 30.7779C50.9437 31.6921 49.4291 31.655 48.5177 30.6952L45.4647 27.48L42.4118 30.6952C41.5003 31.655 39.9857 31.6921 39.0287 30.7779C38.0718 29.8638 38.0348 28.3447 38.9462 27.3848L43.7319 22.3448C44.1836 21.8692 44.8098 21.6 45.4647 21.6Z" fill="#003B78"/>
<path fill-rule="evenodd" clip-rule="evenodd" d="M38.2861 45.6C38.2861 44.2745 39.3575 43.2 40.679 43.2H50.2504C51.572 43.2 52.6433 44.2745 52.6433 45.6C52.6433 46.9255 51.572 48 50.2504 48H40.679C39.3575 48 38.2861 46.9255 38.2861 45.6Z" fill="#003B78"/>
<path fill-rule="evenodd" clip-rule="evenodd" d="M23.9287 2.4C23.9287 1.07452 25 0 26.3216 0H45.4644C46.786 0 47.8573 1.07452 47.8573 2.4C47.8573 3.72548 46.786 4.8 45.4644 4.8H26.3216C25 4.8 23.9287 3.72548 23.9287 2.4Z" fill="#003B78"/>
<path fill-rule="evenodd" clip-rule="evenodd" d="M4.78613 19.2C4.78613 17.8745 5.85745 16.8 7.17899 16.8H26.3218C27.6434 16.8 28.7147 17.8745 28.7147 19.2C28.7147 20.5255 27.6434 21.6 26.3218 21.6H7.17899C5.85745 21.6 4.78613 20.5255 4.78613 19.2Z" fill="#003B78"/>
<path fill-rule="evenodd" clip-rule="evenodd" d="M4.78613 38.4C4.78613 37.0745 5.85745 36 7.17899 36H26.3218C27.6434 36 28.7147 37.0745 28.7147 38.4C28.7147 39.7255 27.6434 40.8 26.3218 40.8H7.17899C5.85745 40.8 4.78613 39.7255 4.78613 38.4Z" fill="#003B78"/>
<path fill-rule="evenodd" clip-rule="evenodd" d="M0 28.8C0 27.4745 1.07132 26.4 2.39286 26.4H21.5357C22.8573 26.4 23.9286 27.4745 23.9286 28.8C23.9286 30.1255 22.8573 31.2 21.5357 31.2H2.39286C1.07132 31.2 0 30.1255 0 28.8Z" fill="#003B78"/>
</svg>
